<?xml version="1.0" standalone="no"?>
<!DOCTYPE svg PUBLIC "-//W3C//DTD SVG 20010904//EN"
 "http://www.w3.org/TR/2001/REC-SVG-20010904/DTD/svg10.dtd">
<svg version="1.0" xmlns="http://www.w3.org/2000/svg"
 width="240.000000pt" height="210.000000pt" viewBox="0 0 240.000000 210.000000"
 preserveAspectRatio="xMidYMid meet">
<metadata>
Created by potrace 1.16, written by Peter Selinger 2001-2019
</metadata>
<g transform="translate(0.000000,210.000000) scale(0.100000,-0.100000)"
fill="#000000" stroke="none">
<path d="M0 1050 l0 -1050 1200 0 1200 0 0 1050 0 1050 -1200 0 -1200 0 0
-1050z m1807 964 c51 -4 73 -10 77 -21 14 -35 -11 -41 -202 -48 -335 -11 -337
-12 -600 -277 -108 -109 -202 -211 -209 -226 -28 -64 39 -136 105 -111 15 6
92 75 172 153 125 123 152 145 199 161 62 20 121 16 180 -14 21 -11 140 -124
271 -258 158 -161 235 -233 238 -223 9 27 87 98 115 105 31 8 67 -16 67 -45 0
-25 -54 -95 -89 -116 -38 -22 -38 -26 -5 -69 37 -50 43 -126 12 -185 -20 -39
-65 -81 -100 -92 -8 -3 -6 -16 7 -44 60 -124 -28 -277 -165 -286 -41 -3 -45
-6 -51 -35 -15 -73 -100 -142 -176 -143 -28 0 -33 -4 -33 -24 0 -37 -15 -70
-51 -110 -82 -94 -219 -86 -301 15 -62 77 -72 97 -58 114 20 24 44 18 96 -24
27 -21 59 -44 72 -50 50 -26 122 19 124 76 1 35 -13 63 -56 111 -61 69 -86
113 -75 134 5 10 16 18 23 18 17 0 122 -77 169 -124 47 -46 86 -48 128 -7 50
50 40 91 -45 181 -63 66 -136 163 -136 178 0 6 9 16 21 22 17 10 30 4 92 -43
40 -30 102 -82 140 -115 80 -73 111 -80 158 -33 48 49 41 76 -47 172 -93 103
-194 225 -194 235 0 4 7 15 16 25 16 17 19 16 74 -26 32 -25 82 -66 111 -92
90 -81 83 -78 133 -53 49 23 72 67 60 114 -8 35 -582 593 -619 602 -57 14 -94
-10 -242 -156 -80 -79 -157 -147 -177 -155 -44 -19 -127 -19 -169 -1 -41 18
-91 72 -106 115 -17 51 -13 117 8 159 11 20 94 111 185 201 92 90 165 165 164
166 -16 11 -94 35 -114 35 -40 0 -92 -27 -146 -75 -28 -25 -59 -45 -70 -45
-23 0 -84 63 -130 133 -29 46 -30 48 -13 67 16 17 20 18 45 5 15 -8 42 -26 59
-41 l31 -26 39 31 c104 82 222 82 315 -1 43 -37 44 -38 67 -19 57 44 168 86
244 93 43 4 276 -1 362 -8z m-1558 -806 c14 -10 31 -28 38 -38 14 -20 15 -20
56 2 55 29 141 29 188 2 46 -27 89 -92 96 -142 5 -37 9 -42 32 -42 14 0 45 -9
68 -20 51 -23 103 -97 103 -146 0 -31 2 -33 44 -39 88 -14 153 -78 163 -163 5
-48 7 -50 43 -56 102 -16 173 -120 150 -220 -10 -45 -42 -92 -60 -88 -6 1 -8
-2 -5 -8 12 -19 -86 -107 -133 -119 -90 -25 -212 45 -229 130 -5 26 -10 30
-37 29 -65 -4 -84 1 -129 31 -32 21 -53 45 -68 77 l-22 47 -51 -3 c-67 -4
-130 28 -171 86 -25 37 -30 53 -30 106 l0 63 -48 22 c-66 31 -100 84 -105 165
-5 69 15 121 61 164 l24 23 -38 38 c-50 50 -60 88 -29 113 25 21 50 17 89 -14z"/>
<path d="M420 1083 c-25 -9 -151 -136 -161 -162 -20 -50 32 -122 88 -121 10 1
60 41 111 90 l94 90 -12 34 c-6 18 -19 41 -29 50 -19 18 -68 28 -91 19z"/>
<path d="M518 783 c-100 -99 -115 -123 -104 -168 17 -68 107 -91 149 -38 12
15 61 67 109 115 85 85 87 88 77 118 -15 41 -54 70 -97 70 -31 0 -47 -12 -134
-97z"/>
<path d="M825 670 c-11 -4 -50 -39 -87 -78 -60 -62 -68 -74 -68 -109 0 -62 54
-104 113 -89 12 3 42 30 66 61 24 30 59 65 78 76 18 11 33 27 33 35 0 33 -30
84 -59 98 -33 18 -46 19 -76 6z"/>
<path d="M1005 441 c-39 -23 -83 -75 -91 -107 -15 -58 48 -122 109 -110 16 3
45 17 63 31 18 14 37 25 42 25 5 0 9 6 10 13 1 6 5 27 8 45 9 45 -12 88 -51
106 -42 20 -53 20 -90 -3z"/>
</g>
</svg>
